<svg width="100" height="100" viewBox="0 0 100 100" fill="none" xmlns="http://www.w3.org/2000/svg">
<path d="M79.9987 8.33325H33.332V98.3333H79.9987C81.8397 98.3333 83.332 96.841 83.332 94.9999V11.6666C83.332 9.82554 81.8397 8.33325 79.9987 8.33325Z" fill="#FFD200"/>
<path d="M30 8.33325H33.3333V98.3333H30V8.33325Z" fill="#78B9EB"/>
<path d="M20.0013 8.33325C18.1603 8.33325 16.668 9.82554 16.668 11.6666V94.9999C16.668 96.841 18.1603 98.3333 20.0013 98.3333H30.0013V8.33325H20.0013Z" fill="#FFD200"/>
<path d="M89.9987 23.3333C89.0783 23.3333 88.332 22.5871 88.332 21.6667V3.33333H11.6654V21.6667C11.6654 22.5871 10.9191 23.3333 9.9987 23.3333C9.07828 23.3333 8.33203 22.5871 8.33203 21.6667V1.66667C8.33203 0.74625 9.07828 0 9.9987 0H89.9987C90.9191 0 91.6654 0.74625 91.6654 1.66667V21.6667C91.6654 22.5871 90.9191 23.3333 89.9987 23.3333Z" fill="#231F20"/>
<path d="M80 6.66675H20C17.2385 6.66675 15 8.90529 15 11.6667V95.0001C15 97.7615 17.2385 100 20 100H80C82.7615 100 85 97.7615 85 95.0001V11.6667C85 8.90529 82.7615 6.66675 80 6.66675ZM18.3333 95.0001V11.6667C18.3333 10.7463 19.0796 10.0001 20 10.0001H28.3333V96.6668H20C19.0796 96.6668 18.3333 95.9205 18.3333 95.0001ZM81.6667 95.0001C81.6667 95.9205 80.9204 96.6668 80 96.6668H35V10.0001H80C80.9204 10.0001 81.6667 10.7463 81.6667 11.6667V95.0001Z" fill="#231F20"/>
<path d="M39.9987 89.9999C39.0783 89.9999 38.332 89.2537 38.332 88.3332V54.9999C38.332 54.0795 39.0783 53.3333 39.9987 53.3333C40.9191 53.3333 41.6654 54.0795 41.6654 54.9999V88.3332C41.6654 89.2537 40.9191 89.9999 39.9987 89.9999Z" fill="#231F20"/>
</svg>
