<svg width="100" height="100" viewBox="0 0 100 100" fill="none" xmlns="http://www.w3.org/2000/svg">
<g clip-path="url(#clip0_347_1429)">
<path d="M86.1298 17.782L81.0352 22.8766C84.6566 25.493 87.8347 28.6711 90.4511 32.2926L95.5457 27.1979L86.1298 17.782Z" fill="#FFD200"/>
<path d="M56.6652 91.6595C75.9937 91.6595 91.6625 75.9908 91.6625 56.6623C91.6625 37.3338 75.9937 21.665 56.6652 21.665C37.3367 21.665 21.668 37.3338 21.668 56.6623C21.668 75.9908 37.3367 91.6595 56.6652 91.6595ZM53.3321 66.6616L76.4968 43.4968L53.3321 66.6616L42.2378 55.5674L53.3321 66.6616Z" fill="#FFD200"/>
<path d="M56.6677 93.3259C76.9161 93.3259 93.3316 76.9105 93.3316 56.6621C93.3316 36.4137 76.9161 19.9983 56.6677 19.9983C36.4193 19.9983 20.0039 36.4137 20.0039 56.6621C20.0273 76.9021 36.4277 93.3025 56.6677 93.3259ZM55.0011 23.4164V28.331C55.0011 29.2509 55.7478 29.9976 56.6677 29.9976C57.5876 29.9976 58.3343 29.2509 58.3343 28.331V23.4164C75.4013 24.2848 89.0453 37.927 89.9134 54.9955H83.3323C82.4123 54.9955 81.6657 55.7422 81.6657 56.6621C81.6657 57.582 82.4123 58.3287 83.3323 58.3287H89.9134C89.0451 75.3974 75.4029 89.0397 58.3343 89.9078V84.9932C58.3343 84.0733 57.5876 83.3266 56.6677 83.3266C55.7478 83.3266 55.0011 84.0733 55.0011 84.9932V89.9078C37.9324 89.0395 24.2902 75.3972 23.422 58.3287H28.3366C29.2565 58.3287 30.0032 57.582 30.0032 56.6621C30.0032 55.7422 29.2565 54.9955 28.3366 54.9955H23.422C24.2902 37.927 37.9326 24.2846 55.0011 23.4164Z" fill="#231F20"/>
<path d="M92.6094 32.4975L96.724 28.3829C97.374 27.7329 97.374 26.6763 96.724 26.0265L87.3081 16.6105C86.6581 15.9606 85.6014 15.9606 84.9516 16.6105L80.8302 20.7185C74.1641 16.2172 66.3696 13.6741 58.332 13.3741V3.33316H69.9977C70.9176 3.33316 71.6643 2.58649 71.6643 1.66658C71.6643 0.746671 70.9176 0 69.9977 0H43.3332C42.4133 0 41.6666 0.746671 41.6666 1.66658C41.6666 2.58649 42.4133 3.33316 43.3332 3.33316H54.9989V13.3891C40.135 13.9557 26.606 22.1167 19.1684 34.9974H10.0025C9.08261 34.9974 8.33594 35.7441 8.33594 36.664C8.33594 37.5839 9.08261 38.3306 10.0025 38.3306H20.0018C20.0452 38.3306 20.0819 38.3089 20.1251 38.3056C20.725 38.314 21.2832 37.9939 21.5799 37.4724C32.1823 18.0939 56.4871 10.9796 75.8656 21.5837C95.2441 32.1879 102.358 56.4909 91.7543 75.8694C81.1501 95.2479 56.8471 102.362 37.4686 91.7581C30.7624 88.0884 25.2478 82.5754 21.5799 75.8694C21.285 75.3462 20.7299 75.0228 20.1284 75.0278C20.085 75.0278 20.0467 75.0028 20.0018 75.0028H10.0025C9.08261 75.0028 8.33594 75.7495 8.33594 76.6694C8.33594 77.5893 9.08261 78.336 10.0025 78.336H19.1684C31.1275 99.0528 57.617 106.151 78.3322 94.1915C99.0474 82.2324 106.147 55.7429 94.1877 35.0277C93.6908 34.1656 93.1642 33.3225 92.6094 32.4975ZM83.5501 22.7249L86.1299 20.1451L93.1894 27.2046L90.6096 29.7844C88.533 27.168 86.1649 24.7964 83.5501 22.7183V22.7249Z" fill="#231F20"/>
<path d="M16.6693 56.6622C16.6693 55.7423 15.9227 54.9956 15.0028 54.9956H1.67049C0.750577 54.9956 0.00390625 55.7423 0.00390625 56.6622C0.00390625 57.5821 0.750577 58.3288 1.67049 58.3288H15.0028C15.9227 58.3288 16.6693 57.5821 16.6693 56.6622Z" fill="#231F20"/>
<path d="M5.00252 48.3295H16.6682C17.5881 48.3295 18.3348 47.5828 18.3348 46.6629C18.3348 45.743 17.5881 44.9963 16.6682 44.9963H5.00252C4.08261 44.9963 3.33594 45.743 3.33594 46.6629C3.33594 47.5828 4.08261 48.3295 5.00252 48.3295Z" fill="#231F20"/>
<path d="M18.3348 66.6615C18.3348 65.7415 17.5881 64.9949 16.6682 64.9949H5.00252C4.08261 64.9949 3.33594 65.7415 3.33594 66.6615C3.33594 67.5814 4.08261 68.328 5.00252 68.328H16.6682C17.5883 68.3278 18.3348 67.5814 18.3348 66.6615Z" fill="#231F20"/>
<path d="M52.1554 67.8397C52.8054 68.4897 53.862 68.4897 54.5118 67.8397L77.6766 44.6749C78.3166 44.0134 78.2982 42.9583 77.635 42.3185C76.9883 41.6953 75.9651 41.6953 75.3202 42.3185L53.3335 64.305L43.4176 54.3891C42.7561 53.749 41.701 53.7674 41.0612 54.4307C40.4379 55.0773 40.4379 56.1006 41.0612 56.7455L52.1554 67.8397Z" fill="#231F20"/>
</g>
<defs>
<clipPath id="clip0_347_1429">
<rect width="100" height="100" fill="white"/>
</clipPath>
</defs>
</svg>
