<svg width="84" height="100" viewBox="0 0 84 100" fill="none" xmlns="http://www.w3.org/2000/svg">
<path d="M82.0201 18.3206V47.0346C82.0123 55.7371 79.6936 64.2807 75.302 71.7884C70.9103 79.2961 64.6041 85.4975 57.0305 89.7559L41.8831 98.2547L26.7358 89.7559C19.1622 85.4975 12.8559 79.2961 8.46427 71.7884C4.07266 64.2807 1.75392 55.7371 1.74609 47.0346V18.3206C13.9383 18.2161 25.7658 14.1406 35.4437 6.70905L41.8831 1.74268L48.3225 6.70905C58.0004 14.1406 69.8279 18.2161 82.0201 18.3206Z" fill="#F3F9FF"/>
<path d="M71.5478 27.9035V47.0346C71.5446 53.8714 69.7241 60.5839 66.2736 66.4818C62.8232 72.3798 57.8673 77.2504 51.9156 80.5927L41.8813 86.2235L31.8471 80.5927C25.8954 77.2504 20.9395 72.3798 17.489 66.4818C14.0386 60.5839 12.2181 53.8714 12.2148 47.0346V27.9035C22.989 26.1079 33.1582 21.6883 41.829 15.0329L41.8813 14.9805L41.9337 15.0329C50.6045 21.6883 60.7737 26.1079 71.5478 27.9035Z" fill="#FFD200"/>
<path d="M64.5669 26.3264V47.0347C64.5636 53.8715 62.7432 60.5839 59.2927 66.4819C55.8423 72.3798 50.8864 77.2503 44.9347 80.5926L38.3906 84.2649L41.8808 86.2235L51.915 80.5926C57.8667 77.2503 62.8226 72.3798 66.2731 66.4819C69.7235 60.5839 71.544 53.8715 71.5473 47.0347V27.9038C69.1938 27.5044 66.8636 26.9778 64.5669 26.3264Z" fill="#FFD200"/>
<path d="M41.8821 100C41.5832 99.9998 41.2894 99.9228 41.0287 99.7762L25.8796 91.2756C18.0345 86.8668 11.5023 80.4443 6.95403 72.6682C2.40579 64.8921 0.00556888 56.0428 2.83114e-10 47.0294V18.3207C-8.29811e-06 17.8587 0.18241 17.4155 0.507417 17.0878C0.832423 16.7602 1.27361 16.5747 1.73462 16.5719C13.5447 16.4734 25.0023 12.528 34.3782 5.33115L40.8176 0.363032C41.1227 0.12764 41.497 0 41.8821 0C42.2672 0 42.6415 0.12764 42.9466 0.363032L49.386 5.33115C58.7619 12.528 70.2195 16.4734 82.0296 16.5719C82.4906 16.5747 82.9318 16.7602 83.2568 17.0878C83.5818 17.4155 83.7642 17.8587 83.7642 18.3207V47.0294C83.758 56.0422 81.3575 64.8908 76.8093 72.6662C72.2611 80.4417 65.7291 86.8635 57.8845 91.2721L42.7354 99.7762C42.4748 99.9228 42.181 99.9998 41.8821 100ZM3.49017 20.0309V47.0294C3.49515 55.4214 5.72989 63.6606 9.96474 70.9005C14.1996 78.1404 20.2818 84.1197 27.5863 88.2241L41.8821 96.2472L56.1779 88.2241C63.4824 84.1197 69.5646 78.1404 73.7994 70.9005C78.0343 63.6606 80.269 55.4214 80.274 47.0294V20.0309C68.3045 19.5683 56.772 15.4013 47.2622 8.10288L41.8821 3.95491L36.502 8.10288C26.9922 15.4013 15.4597 19.5683 3.49017 20.0309Z" fill="#231F20"/>
<path d="M41.8803 87.9741C41.5816 87.9745 41.2877 87.898 41.0269 87.752L30.9944 82.1211C24.7724 78.6245 19.5916 73.5309 15.9843 67.3637C12.377 61.1964 10.4733 54.178 10.4688 47.0295V27.9089C10.4689 27.4952 10.6153 27.095 10.8821 26.7793C11.1489 26.4636 11.5187 26.2529 11.9259 26.1847C22.4143 24.4321 32.3133 20.1274 40.7547 13.6481C41.0671 13.4056 41.4492 13.2704 41.8443 13.2626C42.2394 13.2547 42.6265 13.3745 42.9483 13.6043C51.4031 20.1071 61.3225 24.4289 71.8347 26.1899C72.2418 26.2582 72.6117 26.4689 72.8785 26.7845C73.1452 27.1002 73.2917 27.5005 73.2918 27.9142V47.0295C73.2873 54.178 71.3836 61.1964 67.7763 67.3637C64.169 73.5309 58.9881 78.6245 52.7661 82.1211L42.7336 87.745C42.4735 87.8935 42.1796 87.9724 41.8803 87.9741ZM32.6994 79.0696L41.8803 84.2214L51.0612 79.0696C56.7421 75.877 61.4723 71.2263 64.7658 65.5954C68.0594 59.9644 69.7975 53.5563 69.8017 47.0295V29.3673C59.6995 27.4513 50.1568 23.2826 41.8803 17.17C33.6032 23.2817 24.0608 27.4502 13.9589 29.3673V47.0295C13.9631 53.5563 15.7012 59.9644 18.9947 65.5954C22.2883 71.2263 27.0185 75.877 32.6994 79.0696Z" fill="#231F20"/>
<path d="M46.1566 34.1667H36.4419C35.4401 34.1667 34.628 34.9789 34.628 35.9807V49.71H32.5561C31.5543 49.71 30.7422 50.5222 30.7422 51.524C30.7422 52.5257 31.5543 53.3379 32.5561 53.3379H34.628V57.4817H32.5561C31.5543 57.4817 30.7422 58.2939 30.7422 59.2957C30.7422 60.2974 31.5543 61.1096 32.5561 61.1096H34.628V65.1244C34.628 66.1262 35.4401 66.9383 36.4419 66.9383C37.4437 66.9383 38.2558 66.1262 38.2558 65.1244V61.1096H46.1566C47.1583 61.1096 47.9705 60.2974 47.9705 59.2957C47.9705 58.2939 47.1583 57.4817 46.1566 57.4817H38.2558V53.3379H46.1566C51.4421 53.3379 55.7422 49.0378 55.7422 43.7523C55.7421 38.3361 51.3302 34.1667 46.1566 34.1667ZM46.1566 49.71H38.2558V37.7946H46.1566C49.4219 37.7946 52.1143 40.4284 52.1143 43.7524C52.1142 47.0375 49.4417 49.71 46.1566 49.71Z" fill="#231F20"/>
</svg>
