<svg width="82" height="94" viewBox="0 0 82 94" fill="none" xmlns="http://www.w3.org/2000/svg">
<path d="M56.625 26.6875V38.7031C56.6225 42.992 54.9398 47.1091 51.9375 50.1719C49.3473 52.8639 45.8514 54.5005 42.125 54.7656C39.9141 54.9306 37.6935 54.62 35.6127 53.8545C33.532 53.089 31.6394 51.8866 30.0625 50.3281C30.0313 50.2969 29.9844 50.2656 29.9531 50.2344C28.5 48.7854 27.3474 47.0635 26.5618 45.1678C25.7761 43.272 25.3728 41.2396 25.375 39.1875V25.125C25.375 23.8818 25.8689 22.6895 26.7479 21.8104C27.627 20.9314 28.8193 20.4375 30.0625 20.4375H50.375C52.0326 20.4375 53.6223 21.096 54.7944 22.2681C55.9665 23.4402 56.625 25.0299 56.625 26.6875Z" fill="#FFBCAB"/>
<path d="M33.1875 50.125H48.8125V67.3125H33.1875V50.125Z" fill="#FFAC96"/>
<path d="M45.6875 39.1875H36.3125C34.6549 39.1875 33.0652 39.846 31.8931 41.0181C30.721 42.1902 30.0625 43.7799 30.0625 45.4375V50.3328C31.6401 51.89 33.5329 53.0913 35.6135 53.8559C37.6942 54.6205 39.9145 54.9307 42.125 54.7656C45.8496 54.4998 49.3444 52.8665 51.9375 50.1797V45.4375C51.9375 43.7799 51.279 42.1902 50.1069 41.0181C48.9348 39.846 47.3451 39.1875 45.6875 39.1875Z" fill="#231F20"/>
<path d="M56.625 26.6875V28.25H59.75C60.3113 28.2544 60.8671 28.3603 61.3906 28.5625L62.0938 18.0328C62.1964 16.5355 61.9894 15.0331 61.4857 13.6194C60.982 12.2056 60.1924 10.9108 59.1662 9.81562C58.1399 8.72048 56.8991 7.84854 55.521 7.25416C54.1429 6.65979 52.6571 6.35574 51.1563 6.36096L49.1875 6.37503C48.0206 4.90955 46.5375 3.72676 44.8491 2.91506C43.1608 2.10335 41.3108 1.68372 39.4375 1.68753H17.5625C17.5611 4.15022 18.0451 6.58904 18.9868 8.86454C19.9286 11.14 21.3097 13.2076 23.051 14.949C24.7924 16.6904 26.86 18.0714 29.1355 19.0132C31.411 19.955 33.8498 20.439 36.3125 20.4375H50.375C52.0326 20.4375 53.6223 21.096 54.7944 22.2681C55.9665 23.4402 56.625 25.0299 56.625 26.6875Z" fill="#231F20"/>
<path d="M36.3143 20.4375C33.3366 20.441 30.4011 19.734 27.7515 18.3752C25.1019 17.0164 22.8147 15.0451 21.0799 12.625C20.1378 14.2463 19.7076 16.1143 19.8455 17.9844L20.5955 28.5625C21.1232 28.3557 21.685 28.2497 22.2518 28.25H25.3768V25.125C25.3768 23.8818 25.8706 22.6895 26.7497 21.8104C27.6288 20.9314 28.8211 20.4375 30.0643 20.4375H36.3143Z" fill="#231F20"/>
<path d="M53.5 59.5V70.4375L41 64.1875L28.5 70.4375V59.5L22.25 60.9703V92.3125H59.75V60.9703L53.5 59.5Z" fill="#FFCD00"/>
<path d="M56.625 60.2361V92.3126H59.75V60.9705L56.625 60.2361Z" fill="#FFCD00"/>
<path d="M25.375 60.2361V92.3126H22.25V60.9705L25.375 60.2361Z" fill="#FFCD00"/>
<path d="M11.575 63.4829C8.83245 64.128 6.3883 65.6808 4.63894 67.8894C2.88959 70.0979 1.93764 72.8326 1.9375 75.65V92.3125H16V62.4407L11.575 63.4829Z" fill="#FFCD00"/>
<path d="M59.75 60.9705V92.3126H66V62.4408L59.75 60.9705Z" fill="#F3F9FF"/>
<path d="M16 62.4408V92.3126H22.25V60.9705L16 62.4408Z" fill="#F3F9FF"/>
<path d="M70.425 63.4829L66 62.4407V92.3125H80.0625V75.65C80.0624 72.8326 79.1104 70.0979 77.3611 67.8894C75.6117 65.6808 73.1675 64.128 70.425 63.4829Z" fill="#FFCD00"/>
<path d="M53.5 59.5V57.9375L41 64.1875L53.5 70.4375V59.5Z" fill="#F3F9FF"/>
<path d="M41 64.1875L28.5 57.9375V59.5V70.4375L41 64.1875Z" fill="#F3F9FF"/>
<path d="M56.625 28.25V37.625H59.75C60.8466 37.6251 61.9084 37.2401 62.7501 36.5371C63.5918 35.8342 64.1599 34.858 64.3552 33.7789C64.5506 32.6999 64.3608 31.5865 63.8189 30.6331C63.2771 29.6797 62.4177 28.9469 61.3906 28.5625C60.8671 28.3602 60.3112 28.2544 59.75 28.25H56.625Z" fill="#FFB8A5"/>
<path d="M22.25 28.25C21.0068 28.25 19.8145 28.7439 18.9354 29.6229C18.0564 30.502 17.5625 31.6943 17.5625 32.9375C17.5625 34.1807 18.0564 35.373 18.9354 36.2521C19.8145 37.1311 21.0068 37.625 22.25 37.625H25.375V28.25H22.25Z" fill="#FFB8A5"/>
<path d="M70.7813 61.9688L55.0626 58.2657V57.9375C55.0618 57.6712 54.9929 57.4095 54.8625 57.1772C54.7321 56.945 54.5445 56.7499 54.3175 56.6106C54.0905 56.4713 53.8316 56.3923 53.5655 56.3811C53.2994 56.37 53.0348 56.4271 52.797 56.5469L50.3751 57.75V53.5C52.7183 51.9054 54.6479 49.7754 56.0038 47.2864C57.3597 44.7974 58.103 42.0211 58.172 39.1875H59.7501C61.1101 39.1918 62.4341 38.751 63.5201 37.9322C64.606 37.1135 65.3942 35.9619 65.7643 34.6532C66.1344 33.3446 66.0661 31.9507 65.5698 30.6845C65.0735 29.4183 64.1765 28.3493 63.0157 27.6407L63.6563 18.1407C63.7701 16.4313 63.5317 14.7168 62.9559 13.1033C62.38 11.4899 61.4789 10.0118 60.3085 8.76085C59.1381 7.50986 57.7232 6.51254 56.1516 5.83069C54.58 5.14884 52.8851 4.79698 51.172 4.79691H51.1407L49.9063 4.81254C48.5927 3.33453 46.9802 2.15237 45.1755 1.34428C43.3707 0.53619 41.415 0.120608 39.4376 0.125035H17.5626C17.1482 0.125035 16.7508 0.289655 16.4577 0.582681C16.1647 0.875706 16.0001 1.27313 16.0001 1.68754C15.993 5.61592 17.1334 9.46085 19.2813 12.75C18.5061 14.4195 18.1623 16.2569 18.2813 18.0938L18.9688 27.6407C17.8115 28.3528 16.9185 29.4236 16.4256 30.6899C15.9328 31.9563 15.8671 33.349 16.2385 34.6562C16.61 35.9633 17.3982 37.1134 18.4834 37.9313C19.5686 38.7493 20.8912 39.1904 22.2501 39.1875H23.8126C23.8052 41.4459 24.246 43.6833 25.1097 45.77C25.9733 47.8567 27.2426 49.7512 28.8438 51.3438C29.6945 52.179 30.6262 52.9275 31.6251 53.5782V57.75L29.2032 56.5469C28.9654 56.4271 28.7008 56.37 28.4347 56.3811C28.1686 56.3923 27.9097 56.4713 27.6827 56.6106C27.4557 56.7499 27.2681 56.945 27.1377 57.1772C27.0073 57.4095 26.9384 57.6712 26.9376 57.9375V58.2657L11.2188 61.9688C8.12749 62.6833 5.37066 64.4269 3.40039 66.9139C1.43013 69.4008 0.363391 72.4835 0.375095 75.6563V92.3125C0.375095 92.7269 0.539716 93.1244 0.832741 93.4174C1.12577 93.7104 1.52319 93.875 1.9376 93.875H80.0626C80.477 93.875 80.8744 93.7104 81.1674 93.4174C81.4605 93.1244 81.6251 92.7269 81.6251 92.3125V75.6563C81.6368 72.4835 80.5701 69.4008 78.5998 66.9139C76.6295 64.4269 73.8727 62.6833 70.7813 61.9688ZM51.9376 60.4688V67.9063L44.5001 64.1875L51.9376 60.4688ZM41.0001 62.4375L34.7501 59.3125V55.1875C36.737 55.9652 38.8508 56.3678 40.9845 56.375C41.4063 56.375 41.8126 56.3594 42.2345 56.3282C43.9559 56.203 45.6476 55.813 47.2501 55.1719V59.3125L41.0001 62.4375ZM50.3751 49.5469C48.0924 51.6913 45.1399 52.9827 42.0157 53.2032C40.1333 53.3369 38.2433 53.0904 36.4582 52.4784C34.6731 51.8664 33.0294 50.9013 31.6251 49.6407V45.4375C31.6288 44.1955 32.1239 43.0053 33.0021 42.1271C33.8804 41.2488 35.0705 40.7537 36.3126 40.75H45.6876C46.9297 40.7537 48.1198 41.2488 48.9981 42.1271C49.8763 43.0053 50.3714 44.1955 50.3751 45.4375V49.5469ZM62.8751 32.9375C62.8726 33.7656 62.5426 34.559 61.9571 35.1445C61.3715 35.73 60.5781 36.0601 59.7501 36.0625H58.1876V29.8125H59.7501C60.5781 29.815 61.3715 30.145 61.9571 30.7306C62.5426 31.3161 62.8726 32.1095 62.8751 32.9375ZM19.1876 3.25004H39.4376C41.0761 3.24617 42.6942 3.61231 44.1714 4.32115C45.6486 5.02999 46.9467 6.06323 47.9688 7.34378C48.1117 7.53471 48.2985 7.68837 48.5134 7.79173C48.7282 7.89509 48.9649 7.94511 49.2032 7.93754L51.1563 7.92191H51.1876C52.4711 7.92127 53.7411 8.1846 54.9185 8.69552C56.096 9.20645 57.1558 9.95406 58.0321 10.8919C58.9083 11.8297 59.5824 12.9378 60.0124 14.1471C60.4423 15.3565 60.619 16.6414 60.5313 17.9219L59.9532 26.7032C59.8751 26.7032 59.8126 26.6875 59.7501 26.6875H58.1876C58.1876 24.6155 57.3645 22.6284 55.8994 21.1633C54.4342 19.6981 52.4471 18.875 50.3751 18.875H36.3126C33.5844 18.8708 30.8961 18.22 28.468 16.9761C26.0399 15.7322 23.9411 13.9305 22.3438 11.7188C20.5557 9.22766 19.466 6.30382 19.1876 3.25004ZM23.8126 36.0625H22.2501C21.4213 36.0625 20.6264 35.7333 20.0404 35.1472C19.4543 34.5612 19.1251 33.7663 19.1251 32.9375C19.1251 32.1087 19.4543 31.3139 20.0404 30.7278C20.6264 30.1418 21.4213 29.8125 22.2501 29.8125H23.8126V36.0625ZM23.8126 25.125V26.6875H22.2501C22.172 26.6875 22.1095 26.7032 22.0313 26.7032L21.4063 17.875C21.3476 17.1266 21.4003 16.3736 21.5626 15.6407C23.1279 17.295 24.9609 18.6737 26.9845 19.7188C26.0238 20.2576 25.2237 21.0423 24.6663 21.9923C24.1089 22.9424 23.8143 24.0236 23.8126 25.125ZM28.5001 45.4375V45.625C27.4714 43.6353 26.9355 41.4275 26.9376 39.1875V25.125C26.9401 24.297 27.2701 23.5036 27.8556 22.9181C28.4411 22.3325 29.2346 22.0025 30.0626 22H50.3751C51.6172 22.0037 52.8073 22.4988 53.6856 23.3771C54.5638 24.2553 55.0589 25.4455 55.0626 26.6875V38.7032C55.0663 41.0182 54.5314 43.3024 53.5001 45.375C53.4812 43.3146 52.65 41.345 51.1872 39.8938C49.7244 38.4427 47.7481 37.6274 45.6876 37.625H36.3126C34.2406 37.625 32.2534 38.4481 30.7883 39.9133C29.3232 41.3784 28.5001 43.3655 28.5001 45.4375ZM30.0626 60.4688L37.5001 64.1875L30.0626 67.9063V60.4688ZM14.4376 90.75H3.5001V75.6563C3.49204 73.1871 4.32234 70.7883 5.85512 68.8525C7.3879 66.9166 9.53237 65.5584 11.9376 65L14.4376 64.4219V90.75ZM20.6876 90.75H17.5626V63.6719L20.6876 62.9375V90.75ZM58.1876 90.75H23.8126V62.2032L26.9376 61.4688V70.4375C26.9371 70.7031 27.0042 70.9644 27.1327 71.1967C27.2612 71.4291 27.4468 71.6249 27.672 71.7657C27.9211 71.9187 28.2077 71.9998 28.5001 72C28.7445 71.9969 28.9849 71.9381 29.2032 71.8282L41.0001 65.9375L52.797 71.8282C53.0152 71.9381 53.2557 71.9969 53.5001 72C53.7925 71.9998 54.0791 71.9187 54.3282 71.7657C54.5534 71.6249 54.739 71.4291 54.8675 71.1967C54.996 70.9644 55.0631 70.7031 55.0626 70.4375V61.4688L58.1876 62.2032V90.75ZM64.4376 90.75H61.3126V62.9375L64.4376 63.6719V90.75ZM78.5001 90.75H67.5626V64.4219L70.0626 65C72.4678 65.5584 74.6123 66.9166 76.1451 68.8525C77.6778 70.7883 78.5081 73.1871 78.5001 75.6563V90.75Z" fill="#231F20"/>
<path d="M47.25 34.5C47.6644 34.5 48.0618 34.3354 48.3549 34.0424C48.6479 33.7493 48.8125 33.3519 48.8125 32.9375V31.375C48.8125 30.9606 48.6479 30.5632 48.3549 30.2701C48.0618 29.9771 47.6644 29.8125 47.25 29.8125C46.8356 29.8125 46.4382 29.9771 46.1451 30.2701C45.8521 30.5632 45.6875 30.9606 45.6875 31.375V32.9375C45.6875 33.3519 45.8521 33.7493 46.1451 34.0424C46.4382 34.3354 46.8356 34.5 47.25 34.5Z" fill="#231F20"/>
<path d="M46.5275 46.2829C46.7046 46.1791 46.8595 46.0414 46.9834 45.8777C47.1072 45.714 47.1977 45.5275 47.2495 45.3289C47.3012 45.1303 47.3134 44.9234 47.2853 44.7201C47.2571 44.5167 47.1892 44.3209 47.0853 44.1438C46.9815 43.9668 46.8438 43.8119 46.6801 43.688C46.5164 43.5641 46.33 43.4737 46.1313 43.4219C45.9327 43.3701 45.7258 43.358 45.5225 43.3861C45.3192 43.4143 45.1234 43.4822 44.9463 43.586C43.7556 44.2826 42.4018 44.6518 41.0223 44.6562C39.6428 44.6606 38.2867 44.3 37.0916 43.611C36.9137 43.501 36.7156 43.4278 36.5089 43.3957C36.3022 43.3637 36.0912 43.3735 35.8883 43.4245C35.6855 43.4755 35.495 43.5668 35.328 43.6928C35.1611 43.8188 35.0212 43.9771 34.9166 44.1582C34.8119 44.3393 34.7447 44.5396 34.719 44.7471C34.6932 44.9547 34.7093 45.1653 34.7664 45.3665C34.8236 45.5677 34.9205 45.7554 35.0515 45.9185C35.1825 46.0815 35.3449 46.2166 35.5291 46.3157C37.2025 47.2804 39.1012 47.7854 41.0327 47.7796C42.9643 47.7739 44.8599 47.2575 46.5275 46.2829Z" fill="#FFBCAB"/>
<path d="M34.75 34.5C35.1644 34.5 35.5618 34.3354 35.8549 34.0424C36.1479 33.7493 36.3125 33.3519 36.3125 32.9375V31.375C36.3125 30.9606 36.1479 30.5632 35.8549 30.2701C35.5618 29.9771 35.1644 29.8125 34.75 29.8125C34.3356 29.8125 33.9382 29.9771 33.6451 30.2701C33.3521 30.5632 33.1875 30.9606 33.1875 31.375V32.9375C33.1875 33.3519 33.3521 33.7493 33.6451 34.0424C33.9382 34.3354 34.3356 34.5 34.75 34.5Z" fill="#231F20"/>
<path d="M41 70.4375C40.5856 70.4375 40.1882 70.6021 39.8951 70.8951C39.6021 71.1882 39.4375 71.5856 39.4375 72V73.5625C39.4375 73.9769 39.6021 74.3743 39.8951 74.6674C40.1882 74.9604 40.5856 75.125 41 75.125C41.4144 75.125 41.8118 74.9604 42.1049 74.6674C42.3979 74.3743 42.5625 73.9769 42.5625 73.5625V72C42.5625 71.5856 42.3979 71.1882 42.1049 70.8951C41.8118 70.6021 41.4144 70.4375 41 70.4375Z" fill="#231F20"/>
<path d="M41 78.25C40.5856 78.25 40.1882 78.4146 39.8951 78.7076C39.6021 79.0007 39.4375 79.3981 39.4375 79.8125V81.375C39.4375 81.7894 39.6021 82.1868 39.8951 82.4799C40.1882 82.7729 40.5856 82.9375 41 82.9375C41.4144 82.9375 41.8118 82.7729 42.1049 82.4799C42.3979 82.1868 42.5625 81.7894 42.5625 81.375V79.8125C42.5625 79.3981 42.3979 79.0007 42.1049 78.7076C41.8118 78.4146 41.4144 78.25 41 78.25Z" fill="#231F20"/>
<path d="M42.5625 89.1875V87.625C42.5625 87.2106 42.3979 86.8132 42.1049 86.5201C41.8118 86.2271 41.4144 86.0625 41 86.0625C40.5856 86.0625 40.1882 86.2271 39.8951 86.5201C39.6021 86.8132 39.4375 87.2106 39.4375 87.625V89.1875C39.4375 89.6019 39.6021 89.9993 39.8951 90.2924C40.1882 90.5854 40.5856 90.75 41 90.75C41.4144 90.75 41.8118 90.5854 42.1049 90.2924C42.3979 89.9993 42.5625 89.6019 42.5625 89.1875Z" fill="#231F20"/>
</svg>
