<svg width="88" height="94" viewBox="0 0 88 94" fill="none" xmlns="http://www.w3.org/2000/svg">
<path d="M29.9375 82.9375L1.8125 92.3125V17.3125L29.9375 7.9375V82.9375Z" fill="#FFD200"/>
<path d="M86.1875 82.9375L58.0625 92.3125V20.4375L86.1875 7.9375V82.9375Z" fill="#FFD200"/>
<path d="M58.0625 92.3125L29.9375 82.9375V7.9375L58.0625 20.4375V92.3125Z" fill="#FFD200"/>
<path d="M48.6875 26.6875H67.4375C68.2663 26.6875 69.0612 26.3583 69.6472 25.7722C70.2333 25.1862 70.5625 24.3913 70.5625 23.5625V4.8125C70.5625 3.9837 70.2333 3.18884 69.6472 2.60279C69.0612 2.01674 68.2663 1.6875 67.4375 1.6875H48.6875C47.8587 1.6875 47.0638 2.01674 46.4778 2.60279C45.8917 3.18884 45.5625 3.9837 45.5625 4.8125V23.5625C45.5625 24.3913 45.8917 25.1862 46.4778 25.7722C47.0638 26.3583 47.8587 26.6875 48.6875 26.6875Z" fill="#F3F9FF"/>
<path d="M67.4375 1.6875V18.875C67.4375 19.7038 67.1083 20.4987 66.5222 21.0847C65.9362 21.6708 65.1413 22 64.3125 22H45.5625V23.5625C45.5625 24.3913 45.8917 25.1862 46.4778 25.7722C47.0638 26.3583 47.8587 26.6875 48.6875 26.6875H67.4375C68.2663 26.6875 69.0612 26.3583 69.6472 25.7722C70.2333 25.1862 70.5625 24.3913 70.5625 23.5625V4.8125C70.5625 3.9837 70.2333 3.18884 69.6472 2.60279C69.0612 2.01674 68.2663 1.6875 67.4375 1.6875Z" fill="#F3F9FF"/>
<path d="M58.0625 12.625L61.1875 14.1875V1.6875H54.9375V14.1875L58.0625 12.625Z" fill="#F3F9FF"/>
<path d="M40.875 73.5625C40.875 79.6094 29.9375 92.3125 29.9375 92.3125C29.9375 92.3125 19 79.6094 19 73.5625C19 70.6617 20.1523 67.8797 22.2035 65.8285C24.2547 63.7773 27.0367 62.625 29.9375 62.625C32.8383 62.625 35.6203 63.7773 37.6715 65.8285C39.7227 67.8797 40.875 70.6617 40.875 73.5625Z" fill="#F3F9FF"/>
<path d="M29.9375 75.125C31.6634 75.125 33.0625 73.7259 33.0625 72C33.0625 70.2741 31.6634 68.875 29.9375 68.875C28.2116 68.875 26.8125 70.2741 26.8125 72C26.8125 73.7259 28.2116 75.125 29.9375 75.125Z" fill="#F3F9FF"/>
<path d="M29.9375 34.5C29.5231 34.5 29.1257 34.3354 28.8326 34.0424C28.5396 33.7493 28.375 33.3519 28.375 32.9375V31.375C28.375 30.9606 28.5396 30.5632 28.8326 30.2701C29.1257 29.9771 29.5231 29.8125 29.9375 29.8125C30.3519 29.8125 30.7493 29.9771 31.0424 30.2701C31.3354 30.5632 31.5 30.9606 31.5 31.375V32.9375C31.5 33.3519 31.3354 33.7493 31.0424 34.0424C30.7493 34.3354 30.3519 34.5 29.9375 34.5Z" fill="#231F20"/>
<path d="M29.9375 42.3125C29.5231 42.3125 29.1257 42.1479 28.8326 41.8549C28.5396 41.5618 28.375 41.1644 28.375 40.75V39.1875C28.375 38.7731 28.5396 38.3757 28.8326 38.0826C29.1257 37.7896 29.5231 37.625 29.9375 37.625C30.3519 37.625 30.7493 37.7896 31.0424 38.0826C31.3354 38.3757 31.5 38.7731 31.5 39.1875V40.75C31.5 41.1644 31.3354 41.5618 31.0424 41.8549C30.7493 42.1479 30.3519 42.3125 29.9375 42.3125Z" fill="#231F20"/>
<path d="M29.9375 57.9375C29.5231 57.9375 29.1257 57.7729 28.8326 57.4799C28.5396 57.1868 28.375 56.7894 28.375 56.375V54.8125C28.375 54.3981 28.5396 54.0007 28.8326 53.7076C29.1257 53.4146 29.5231 53.25 29.9375 53.25C30.3519 53.25 30.7493 53.4146 31.0424 53.7076C31.3354 54.0007 31.5 54.3981 31.5 54.8125V56.375C31.5 56.7894 31.3354 57.1868 31.0424 57.4799C30.7493 57.7729 30.3519 57.9375 29.9375 57.9375Z" fill="#231F20"/>
<path d="M29.9375 50.125C29.5231 50.125 29.1257 49.9604 28.8326 49.6674C28.5396 49.3743 28.375 48.9769 28.375 48.5625V47C28.375 46.5856 28.5396 46.1882 28.8326 45.8951C29.1257 45.6021 29.5231 45.4375 29.9375 45.4375C30.3519 45.4375 30.7493 45.6021 31.0424 45.8951C31.3354 46.1882 31.5 46.5856 31.5 47V48.5625C31.5 48.9769 31.3354 49.3743 31.0424 49.6674C30.7493 49.9604 30.3519 50.125 29.9375 50.125Z" fill="#231F20"/>
<path d="M87.0313 6.62187C86.8106 6.48022 86.5578 6.39638 86.2962 6.37809C86.0346 6.35979 85.7726 6.40763 85.5344 6.51719L72.125 12.6859V4.8125C72.125 3.5693 71.6311 2.37701 70.7521 1.49794C69.873 0.61886 68.6807 0.125 67.4375 0.125H48.6875C47.4443 0.125 46.252 0.61886 45.3729 1.49794C44.4939 2.37701 44 3.5693 44 4.8125V12.6859L30.5906 6.51719C30.2301 6.3515 29.8201 6.32916 29.4438 6.45469L1.31875 15.8297C1.00749 15.9334 0.736759 16.1324 0.544934 16.3985C0.353108 16.6647 0.249921 16.9844 0.25 17.3125V92.3125C0.25 92.7269 0.41462 93.1243 0.707646 93.4174C1.00067 93.7104 1.3981 93.875 1.8125 93.875C1.98027 93.8748 2.14695 93.848 2.30625 93.7953L17.9313 88.5922C18.1262 88.5273 18.3064 88.4247 18.4617 88.2902C18.617 88.1557 18.7443 87.992 18.8362 87.8083C18.9282 87.6246 18.9831 87.4246 18.9978 87.2197C19.0125 87.0148 18.9867 86.809 18.9219 86.6141C18.857 86.4191 18.7544 86.2389 18.6199 86.0836C18.4854 85.9283 18.3217 85.8011 18.138 85.7091C17.9543 85.6171 17.7543 85.5622 17.5494 85.5475C17.3445 85.5328 17.1387 85.5586 16.9438 85.6234L3.375 90.1453V18.4391L29.8453 9.61563L44 16.1266V23.5625C44 24.8057 44.4939 25.998 45.3729 26.8771C46.252 27.7561 47.4443 28.25 48.6875 28.25H67.4375C68.6807 28.25 69.873 27.7561 70.7521 26.8771C71.6311 25.998 72.125 24.8057 72.125 23.5625V16.1266L84.625 10.3766V81.8109L58.0625 90.6656L42.9313 85.6266C42.7363 85.5617 42.5305 85.5359 42.3256 85.5506C42.1207 85.5653 41.9207 85.6202 41.737 85.7122C41.5533 85.8042 41.3896 85.9314 41.2551 86.0867C41.1206 86.242 41.018 86.4223 40.9531 86.6172C40.8883 86.8121 40.8625 87.0179 40.8772 87.2228C40.8919 87.4277 40.9468 87.6277 41.0388 87.8114C41.1307 87.9951 41.258 88.1589 41.4133 88.2934C41.5686 88.4279 41.7488 88.5305 41.9438 88.5953L57.5687 93.7984C57.8893 93.9052 58.2357 93.9052 58.5563 93.7984L86.6813 84.4234C86.993 84.3196 87.2641 84.1201 87.456 83.8533C87.6479 83.5866 87.7507 83.2661 87.75 82.9375V7.9375C87.7501 7.67553 87.6843 7.41775 87.5587 7.18786C87.4331 6.95796 87.2517 6.76334 87.0313 6.62187ZM59.625 3.25V11.6594L58.7609 11.2266C58.5441 11.1182 58.3049 11.0618 58.0625 11.0618C57.8201 11.0618 57.5809 11.1182 57.3641 11.2266L56.5 11.6594V3.25H59.625ZM69 23.5625C69 23.9769 68.8354 24.3743 68.5424 24.6674C68.2493 24.9604 67.8519 25.125 67.4375 25.125H48.6875C48.2731 25.125 47.8757 24.9604 47.5826 24.6674C47.2896 24.3743 47.125 23.9769 47.125 23.5625V4.8125C47.125 4.3981 47.2896 4.00067 47.5826 3.70765C47.8757 3.41462 48.2731 3.25 48.6875 3.25H53.375V14.1875C53.3749 14.4539 53.4429 14.7158 53.5725 14.9486C53.7021 15.1813 53.889 15.377 54.1156 15.5171C54.3421 15.6572 54.6007 15.7371 54.8668 15.7491C55.1329 15.7612 55.3977 15.705 55.6359 15.5859L58.0625 14.3719L60.4891 15.5859C60.7273 15.705 60.9921 15.7612 61.2582 15.7491C61.5243 15.7371 61.7829 15.6572 62.0094 15.5171C62.236 15.377 62.4229 15.1813 62.5525 14.9486C62.6822 14.7158 62.7501 14.4539 62.75 14.1875V3.25H67.4375C67.8519 3.25 68.2493 3.41462 68.5424 3.70765C68.8354 4.00067 69 4.3981 69 4.8125V23.5625Z" fill="#231F20"/>
<path d="M29.9375 22C29.5231 22 29.1257 22.1646 28.8326 22.4576C28.5396 22.7507 28.375 23.1481 28.375 23.5625V25.125C28.375 25.5394 28.5396 25.9368 28.8326 26.2299C29.1257 26.5229 29.5231 26.6875 29.9375 26.6875C30.3519 26.6875 30.7493 26.5229 31.0424 26.2299C31.3354 25.9368 31.5 25.5394 31.5 25.125V23.5625C31.5 23.1481 31.3354 22.7507 31.0424 22.4576C30.7493 22.1646 30.3519 22 29.9375 22Z" fill="#231F20"/>
<path d="M29.9375 14.1875C29.5231 14.1875 29.1257 14.3521 28.8326 14.6451C28.5396 14.9382 28.375 15.3356 28.375 15.75V17.3125C28.375 17.7269 28.5396 18.1243 28.8326 18.4174C29.1257 18.7104 29.5231 18.875 29.9375 18.875C30.3519 18.875 30.7493 18.7104 31.0424 18.4174C31.3354 18.1243 31.5 17.7269 31.5 17.3125V15.75C31.5 15.3356 31.3354 14.9382 31.0424 14.6451C30.7493 14.3521 30.3519 14.1875 29.9375 14.1875Z" fill="#231F20"/>
<path d="M69 79.8125H47.125C46.7106 79.8125 46.3132 79.6479 46.0201 79.3549C45.7271 79.0618 45.5625 78.6644 45.5625 78.25C45.5625 77.8356 45.7271 77.4382 46.0201 77.1451C46.3132 76.8521 46.7106 76.6875 47.125 76.6875H69C70.2432 76.6875 71.4355 76.1936 72.3146 75.3146C73.1936 74.4355 73.6875 73.2432 73.6875 72C73.6875 70.7568 73.1936 69.5645 72.3146 68.6854C71.4355 67.8064 70.2432 67.3125 69 67.3125H53.375C51.303 67.3125 49.3159 66.4894 47.8507 65.0243C46.3856 63.5591 45.5625 61.572 45.5625 59.5C45.5625 57.428 46.3856 55.4409 47.8507 53.9757C49.3159 52.5106 51.303 51.6875 53.375 51.6875H70.5625C71.8057 51.6875 72.998 51.1936 73.8771 50.3146C74.7561 49.4355 75.25 48.2432 75.25 47C75.25 45.7568 74.7561 44.5645 73.8771 43.6854C72.998 42.8064 71.8057 42.3125 70.5625 42.3125H61.1875C59.9443 42.3125 58.752 41.8186 57.8729 40.9396C56.9939 40.0605 56.5 38.8682 56.5 37.625V32.9375C56.5 32.5231 56.6646 32.1257 56.9576 31.8326C57.2507 31.5396 57.6481 31.375 58.0625 31.375C58.4769 31.375 58.8743 31.5396 59.1674 31.8326C59.4604 32.1257 59.625 32.5231 59.625 32.9375V37.625C59.625 38.0394 59.7896 38.4368 60.0826 38.7299C60.3757 39.0229 60.7731 39.1875 61.1875 39.1875H70.5625C72.6345 39.1875 74.6216 40.0106 76.0868 41.4757C77.5519 42.9409 78.375 44.928 78.375 47C78.375 49.072 77.5519 51.0591 76.0868 52.5243C74.6216 53.9894 72.6345 54.8125 70.5625 54.8125H53.375C52.1318 54.8125 50.9395 55.3064 50.0604 56.1854C49.1814 57.0645 48.6875 58.2568 48.6875 59.5C48.6875 60.7432 49.1814 61.9355 50.0604 62.8146C50.9395 63.6936 52.1318 64.1875 53.375 64.1875H69C71.072 64.1875 73.0591 65.0106 74.5243 66.4757C75.9894 67.9409 76.8125 69.928 76.8125 72C76.8125 74.072 75.9894 76.0591 74.5243 77.5243C73.0591 78.9894 71.072 79.8125 69 79.8125Z" fill="#231F20"/>
<path d="M29.9375 93.875C29.7126 93.875 29.4903 93.8263 29.2859 93.7325C29.0815 93.6387 28.8998 93.5018 28.7531 93.3312C27.5938 91.9859 17.4375 79.9969 17.4375 73.5625C17.4375 70.2473 18.7545 67.0679 21.0987 64.7237C23.4429 62.3795 26.6223 61.0625 29.9375 61.0625C33.2527 61.0625 36.4321 62.3795 38.7763 64.7237C41.1205 67.0679 42.4375 70.2473 42.4375 73.5625C42.4375 79.9969 32.2812 91.9859 31.1219 93.3312C30.9752 93.5018 30.7935 93.6387 30.5891 93.7325C30.3847 93.8263 30.1624 93.875 29.9375 93.875ZM29.9375 64.1875C27.4519 64.19 25.0687 65.1785 23.3111 66.9361C21.5535 68.6937 20.565 71.0769 20.5625 73.5625C20.5625 77.5266 26.5281 85.6812 29.9375 89.8734C33.3469 85.6812 39.3125 77.5219 39.3125 73.5625C39.31 71.0769 38.3215 68.6937 36.5639 66.9361C34.8063 65.1785 32.4231 64.19 29.9375 64.1875Z" fill="#231F20"/>
<path d="M29.9375 76.6875C29.0104 76.6875 28.1041 76.4126 27.3333 75.8975C26.5624 75.3825 25.9616 74.6504 25.6068 73.7938C25.252 72.9373 25.1592 71.9948 25.3401 71.0855C25.5209 70.1762 25.9674 69.341 26.6229 68.6854C27.2785 68.0299 28.1137 67.5834 29.023 67.4026C29.9323 67.2217 30.8748 67.3145 31.7313 67.6693C32.5879 68.0241 33.3199 68.6249 33.835 69.3958C34.3501 70.1666 34.625 71.0729 34.625 72C34.625 73.2432 34.1311 74.4355 33.2521 75.3146C32.373 76.1936 31.1807 76.6875 29.9375 76.6875ZM29.9375 70.4375C29.6285 70.4375 29.3264 70.5291 29.0694 70.7008C28.8125 70.8725 28.6122 71.1166 28.4939 71.4021C28.3757 71.6876 28.3447 72.0017 28.405 72.3048C28.4653 72.6079 28.6141 72.8863 28.8326 73.1049C29.0512 73.3234 29.3296 73.4722 29.6327 73.5325C29.9358 73.5928 30.2499 73.5618 30.5354 73.4436C30.821 73.3253 31.065 73.125 31.2367 72.8681C31.4084 72.6111 31.5 72.309 31.5 72C31.5 71.5856 31.3354 71.1882 31.0424 70.8951C30.7493 70.6021 30.3519 70.4375 29.9375 70.4375Z" fill="#231F20"/>
</svg>
