<svg width="94" height="94" viewBox="0 0 94 94" fill="none" xmlns="http://www.w3.org/2000/svg">
<path d="M79.8125 23.5625H1.6875V86.0625H79.8125V23.5625Z" fill="#FFD200"/>
<path d="M1.6875 86.0625H79.8125V23.5625C79.8125 58.1078 44.8703 86.0625 1.6875 86.0625Z" fill="#FFD200"/>
<path d="M79.8125 23.5625L68.875 1.6875H45.4375L48.5625 23.5625H79.8125Z" fill="#FFD200"/>
<path d="M36.0625 1.6875H12.625L1.6875 23.5625H32.9375L36.0625 1.6875Z" fill="#FFD200"/>
<path d="M48.5625 23.5625H32.9375V48.5625H48.5625V23.5625Z" fill="#F3F9FF"/>
<path d="M48.5625 23.5625L45.4375 1.6875H36.0625L32.9375 23.5625H48.5625Z" fill="#F3F9FF"/>
<path d="M73.5625 48.5625L54.8125 54.8125V63.0937C54.8125 68.2384 56.0826 73.3034 58.5102 77.8393C60.9377 82.3752 64.4475 86.2416 68.7281 89.0953L73.5625 92.3125L78.3969 89.0891C82.6766 86.2359 86.1859 82.3705 88.6134 77.8358C91.0408 73.3011 92.3115 68.2373 92.3125 63.0937V54.8125L73.5625 48.5625Z" fill="#F3F9FF"/>
<path d="M56.375 84.5H3.25V25.125H31.375V48.5625C31.375 48.9769 31.5396 49.3743 31.8326 49.6674C32.1257 49.9604 32.5231 50.125 32.9375 50.125H48.5625C48.9769 50.125 49.3743 49.9604 49.6674 49.6674C49.9604 49.3743 50.125 48.9769 50.125 48.5625V25.125H78.25V44.5312C78.25 44.9457 78.4146 45.3431 78.7076 45.6361C79.0007 45.9291 79.3981 46.0938 79.8125 46.0938C80.2269 46.0938 80.6243 45.9291 80.9174 45.6361C81.2104 45.3431 81.375 44.9457 81.375 44.5312V23.5625C81.375 23.5422 81.3641 23.525 81.3641 23.5063C81.3575 23.3417 81.3248 23.1793 81.2672 23.025C81.2531 22.9906 81.2453 22.9563 81.2313 22.9219C81.2172 22.8875 81.2203 22.8828 81.2109 22.8641L70.2734 0.989063C70.1436 0.729324 69.944 0.510889 69.697 0.358265C69.45 0.20564 69.1654 0.124865 68.875 0.125H12.625C12.3346 0.124865 12.05 0.20564 11.803 0.358265C11.556 0.510889 11.3564 0.729324 11.2266 0.989063L0.289063 22.8641C0.279688 22.8828 0.278125 22.9031 0.26875 22.9219C0.259375 22.9406 0.246875 22.9906 0.232813 23.025C0.175349 23.1788 0.142651 23.3407 0.135937 23.5047C0.135937 23.525 0.125 23.5422 0.125 23.5625V86.0625C0.125 86.4769 0.28962 86.8743 0.582646 87.1674C0.875671 87.4604 1.2731 87.625 1.6875 87.625H56.375C56.7894 87.625 57.1868 87.4604 57.4799 87.1674C57.7729 86.8743 57.9375 86.4769 57.9375 86.0625C57.9375 85.6481 57.7729 85.2507 57.4799 84.9576C57.1868 84.6646 56.7894 84.5 56.375 84.5ZM47 47H34.5V25.125H47V47ZM77.2844 22H49.9188L47.2391 3.25H67.9094L77.2844 22ZM44.0828 3.25L46.7609 22H34.7391L37.4172 3.25H44.0828ZM13.5906 3.25H34.2609L31.5812 22H4.21562L13.5906 3.25Z" fill="black"/>
<path d="M23.5625 68.875H11.0625C10.6481 68.875 10.2507 69.0396 9.95765 69.3326C9.66462 69.6257 9.5 70.0231 9.5 70.4375C9.5 70.8519 9.66462 71.2493 9.95765 71.5424C10.2507 71.8354 10.6481 72 11.0625 72H23.5625C23.9769 72 24.3743 71.8354 24.6674 71.5424C24.9604 71.2493 25.125 70.8519 25.125 70.4375C25.125 70.0231 24.9604 69.6257 24.6674 69.3326C24.3743 69.0396 23.9769 68.875 23.5625 68.875Z" fill="black"/>
<path d="M23.5625 75.125H11.0625C10.6481 75.125 10.2507 75.2896 9.95765 75.5826C9.66462 75.8757 9.5 76.2731 9.5 76.6875C9.5 77.1019 9.66462 77.4993 9.95765 77.7924C10.2507 78.0854 10.6481 78.25 11.0625 78.25H23.5625C23.9769 78.25 24.3743 78.0854 24.6674 77.7924C24.9604 77.4993 25.125 77.1019 25.125 76.6875C25.125 76.2731 24.9604 75.8757 24.6674 75.5826C24.3743 75.2896 23.9769 75.125 23.5625 75.125Z" fill="black"/>
<path d="M23.5625 62.625H11.0625C10.6481 62.625 10.2507 62.7896 9.95765 63.0826C9.66462 63.3757 9.5 63.7731 9.5 64.1875C9.5 64.6019 9.66462 64.9993 9.95765 65.2924C10.2507 65.5854 10.6481 65.75 11.0625 65.75H23.5625C23.9769 65.75 24.3743 65.5854 24.6674 65.2924C24.9604 64.9993 25.125 64.6019 25.125 64.1875C25.125 63.7731 24.9604 63.3757 24.6674 63.0826C24.3743 62.7896 23.9769 62.625 23.5625 62.625Z" fill="black"/>
<path d="M32.9375 62.625H29.8125C29.3981 62.625 29.0007 62.7896 28.7076 63.0826C28.4146 63.3757 28.25 63.7731 28.25 64.1875C28.25 64.6019 28.4146 64.9993 28.7076 65.2924C29.0007 65.5854 29.3981 65.75 29.8125 65.75H32.9375C33.3519 65.75 33.7493 65.5854 34.0424 65.2924C34.3354 64.9993 34.5 64.6019 34.5 64.1875C34.5 63.7731 34.3354 63.3757 34.0424 63.0826C33.7493 62.7896 33.3519 62.625 32.9375 62.625Z" fill="black"/>
<path d="M32.9375 68.875H29.8125C29.3981 68.875 29.0007 69.0396 28.7076 69.3326C28.4146 69.6257 28.25 70.0231 28.25 70.4375C28.25 70.8519 28.4146 71.2493 28.7076 71.5424C29.0007 71.8354 29.3981 72 29.8125 72H32.9375C33.3519 72 33.7493 71.8354 34.0424 71.5424C34.3354 71.2493 34.5 70.8519 34.5 70.4375C34.5 70.0231 34.3354 69.6257 34.0424 69.3326C33.7493 69.0396 33.3519 68.875 32.9375 68.875Z" fill="black"/>
<path d="M32.9375 75.125H29.8125C29.3981 75.125 29.0007 75.2896 28.7076 75.5826C28.4146 75.8757 28.25 76.2731 28.25 76.6875C28.25 77.1019 28.4146 77.4993 28.7076 77.7924C29.0007 78.0854 29.3981 78.25 29.8125 78.25H32.9375C33.3519 78.25 33.7493 78.0854 34.0424 77.7924C34.3354 77.4993 34.5 77.1019 34.5 76.6875C34.5 76.2731 34.3354 75.8757 34.0424 75.5826C33.7493 75.2896 33.3519 75.125 32.9375 75.125Z" fill="black"/>
<path d="M92.8063 53.3296L74.0563 47.0796C73.7358 46.9728 73.3893 46.9728 73.0688 47.0796L54.3188 53.3296C54.0075 53.4332 53.7368 53.6323 53.5449 53.8984C53.3531 54.1646 53.2499 54.4843 53.25 54.8124V63.0936C53.2453 68.4958 54.577 73.8153 57.1266 78.578C59.6761 83.3408 63.3644 87.3988 67.8625 90.3905L72.6953 93.6124C72.9521 93.7837 73.2538 93.8751 73.5625 93.8751C73.8712 93.8751 74.1729 93.7837 74.4297 93.6124L79.2625 90.3905C83.7607 87.3988 87.4489 83.3408 89.9984 78.578C92.548 73.8153 93.8798 68.4958 93.875 63.0936V54.8124C93.8751 54.4843 93.7719 54.1646 93.5801 53.8984C93.3883 53.6323 93.1175 53.4332 92.8063 53.3296ZM90.75 63.0936C90.7555 67.9821 89.5512 72.796 87.2444 77.106C84.9377 81.416 81.6003 85.0882 77.5297 87.7952L73.5625 90.4374L69.5953 87.7921C65.5252 85.0854 62.188 81.4137 59.8813 77.1042C57.5746 72.7948 56.37 67.9816 56.375 63.0936V55.939L73.5625 50.2093L90.75 55.939V63.0936Z" fill="black"/>
<path d="M73.63 84.7563C73.7438 84.927 73.8902 85.0736 74.0607 85.1878C74.2313 85.302 74.4226 85.3814 74.6239 85.4216C74.8251 85.4618 75.0323 85.4619 75.2336 85.422C75.435 85.3821 75.6264 85.303 75.7971 85.1891C81.4015 81.4683 85.3775 75.7519 86.9159 69.2031C87.011 68.7997 86.9419 68.375 86.7239 68.0225C86.5059 67.67 86.1568 67.4185 85.7534 67.3234C85.35 67.2283 84.9253 67.2974 84.5728 67.5154C84.2203 67.7334 83.9688 68.0825 83.8737 68.4859C82.5171 74.2641 79.0085 79.3077 74.0628 82.5891C73.892 82.7029 73.7454 82.8493 73.6312 83.0199C73.5171 83.1904 73.4376 83.3818 73.3974 83.583C73.3573 83.7843 73.3571 83.9915 73.397 84.1928C73.4369 84.3941 73.516 84.5856 73.63 84.7563Z" fill="black"/>
<path d="M86.0625 64.6562C86.4769 64.6562 86.8743 64.4916 87.1674 64.1986C87.4604 63.9055 87.625 63.5081 87.625 63.0937V60.8796C87.625 60.4652 87.4604 60.0678 87.1674 59.7748C86.8743 59.4818 86.4769 59.3171 86.0625 59.3171C85.6481 59.3171 85.2507 59.4818 84.9576 59.7748C84.6646 60.0678 84.5 60.4652 84.5 60.8796V63.0937C84.5 63.5081 84.6646 63.9055 84.9576 64.1986C85.2507 64.4916 85.6481 64.6562 86.0625 64.6562Z" fill="black"/>
</svg>
