<svg width="10" height="6" viewBox="0 0 10 6" fill="none" xmlns="http://www.w3.org/2000/svg">
<path d="M9.79231 0.211259C9.72592 0.144318 9.64693 0.0911858 9.55989 0.0549268C9.47286 0.0186678 9.37951 0 9.28523 0C9.19094 0 9.09759 0.0186678 9.01056 0.0549268C8.92353 0.0911858 8.84454 0.144318 8.77814 0.211259L5.50708 3.4823C5.44069 3.54924 5.3617 3.60237 5.27467 3.63863C5.18763 3.67489 5.09428 3.69356 5 3.69356C4.90572 3.69356 4.81237 3.67489 4.72533 3.63863C4.6383 3.60237 4.55931 3.54924 4.49291 3.4823L1.22186 0.211259C1.15546 0.144318 1.07647 0.0911858 0.989437 0.0549268C0.902405 0.0186678 0.809054 0 0.714771 0C0.620487 0 0.527137 0.0186678 0.440104 0.0549268C0.353072 0.0911858 0.27408 0.144318 0.207685 0.211259C0.0746641 0.345074 0 0.526089 0 0.71477C0 0.903452 0.0746641 1.08447 0.207685 1.21828L3.48589 4.49646C3.88763 4.8977 4.4322 5.12307 5 5.12307C5.56779 5.12307 6.11237 4.8977 6.51411 4.49646L9.79231 1.21828C9.92533 1.08447 10 0.903452 10 0.71477C10 0.526089 9.92533 0.345074 9.79231 0.211259Z" fill="#0098D5"/>
</svg>
