<svg width="13" height="16" viewBox="0 0 13 16" fill="none" xmlns="http://www.w3.org/2000/svg">
<path fill-rule="evenodd" clip-rule="evenodd" d="M2.285 0H10.285C11.547 0 12.57 1.02303 12.57 2.285V13.715C12.57 14.977 11.547 16 10.285 16H2.285C1.02303 16 0 14.977 0 13.715V2.285C0 1.02303 1.02303 0 2.285 0ZM3.2849 2.28499H9.2799C9.83218 2.28499 10.2799 2.73271 10.2799 3.28499V4.70499C10.2799 5.25728 9.83218 5.70499 9.2799 5.70499H3.2849C2.73261 5.70499 2.2849 5.25728 2.2849 4.70499V3.28499C2.2849 2.73271 2.73261 2.28499 3.2849 2.28499ZM4.17469 7.43H3.85469C3.3024 7.43 2.85469 7.87771 2.85469 8.43V8.75C2.85469 9.30228 3.3024 9.75 3.85469 9.75H4.17469C4.72697 9.75 5.17469 9.30228 5.17469 8.75V8.43C5.17469 7.87771 4.72697 7.43 4.17469 7.43ZM8.42969 7.43H8.74969C9.30197 7.43 9.74969 7.87771 9.74969 8.43V8.75C9.74969 9.30228 9.30197 9.75 8.74969 9.75H8.42969C7.8774 9.75 7.42969 9.30228 7.42969 8.75V8.43C7.42969 7.87771 7.8774 7.43 8.42969 7.43ZM8.74969 11.43H8.42969C7.8774 11.43 7.42969 11.8777 7.42969 12.43V12.75C7.42969 13.3023 7.8774 13.75 8.42969 13.75H8.74969C9.30197 13.75 9.74969 13.3023 9.74969 12.75V12.43C9.74969 11.8777 9.30197 11.43 8.74969 11.43ZM3.85469 11.43H4.17469C4.72697 11.43 5.17469 11.8777 5.17469 12.43V12.75C5.17469 13.3023 4.72697 13.75 4.17469 13.75H3.85469C3.3024 13.75 2.85469 13.3023 2.85469 12.75V12.43C2.85469 11.8777 3.3024 11.43 3.85469 11.43Z" fill="black"/>
</svg>
