<svg width="15" height="15" viewBox="0 0 15 15" fill="none" xmlns="http://www.w3.org/2000/svg">
<path d="M12.9057 9.30278C12.5442 8.95878 12.0642 8.76725 11.5652 8.76795C11.0663 8.76865 10.5868 8.96153 10.2263 9.30654L9.03307 10.3122C8.05914 9.90904 7.17441 9.31746 6.4297 8.5714C5.68498 7.82534 5.09494 6.93948 4.69345 5.9647L5.69509 4.77498C6.03912 4.41368 6.23132 3.93406 6.23202 3.43511C6.23272 2.93617 6.04186 2.45601 5.69885 2.09375C5.69885 2.09375 4.53945 0.589071 4.52004 0.56966C4.16287 0.210083 3.67859 0.00549878 3.17185 0.000109234C2.66511 -0.00528031 2.17659 0.188958 1.81185 0.540856L1.09192 1.16702C-3.74037 6.30784 8.72944 18.7861 13.8629 13.8782L14.4338 13.2207C14.7964 12.8569 15 12.3641 15 11.8503C15 11.3366 14.7964 10.8438 14.4338 10.48C14.4131 10.4631 12.9057 9.30278 12.9057 9.30278Z" fill="black"/>
</svg>
