<svg width="130" height="60" viewBox="0 0 130 60" fill="none" xmlns="http://www.w3.org/2000/svg">
<path fill-rule="evenodd" clip-rule="evenodd" d="M81.5644 10.0983L80.5155 13.608C80.4261 13.9673 80.4779 14.3471 80.6602 14.6693C80.8425 14.9915 81.1415 15.2315 81.4955 15.3398C81.8495 15.4481 82.2316 15.4165 82.563 15.2515C82.8944 15.0865 83.1498 14.8006 83.2767 14.4528L84.0309 11.9864H94.7585L100.429 19.5899L97.7409 28.8093H96.1533C95.7699 28.8093 95.4021 28.9616 95.1309 29.2328C94.8598 29.5039 94.7075 29.8717 94.7075 30.2551C94.7075 30.6386 94.8598 31.0064 95.1309 31.2775C95.4021 31.5487 95.7699 31.701 96.1533 31.701H98.8239C99.1392 31.6941 99.4437 31.5846 99.6913 31.3892C99.9388 31.1938 100.116 30.9231 100.196 30.618L103.388 19.6692C103.45 19.4552 103.461 19.2299 103.422 19.0107C103.382 18.7915 103.293 18.5843 103.161 18.4048L96.6239 9.63901C96.4913 9.46361 96.32 9.32119 96.1233 9.22284C95.9266 9.1245 95.7098 9.07288 95.4899 9.07201H82.9422C82.6335 9.07198 82.333 9.17116 82.0849 9.35492C81.8368 9.53868 81.6543 9.79728 81.5644 10.0926" fill="#FEFEFE"/>
<path fill-rule="evenodd" clip-rule="evenodd" d="M80.6097 28.7866H57.5044C57.121 28.7866 56.7532 28.939 56.4821 29.2101C56.2109 29.4812 56.0586 29.849 56.0586 30.2325C56.0586 30.6159 56.2109 30.9837 56.4821 31.2548C56.7532 31.526 57.121 31.6783 57.5044 31.6783H80.6097C80.9932 31.6783 81.3609 31.526 81.6321 31.2548C81.9032 30.9837 82.0556 30.6159 82.0556 30.2325C82.0556 29.849 81.9032 29.4812 81.6321 29.2101C81.3609 28.939 80.9932 28.7866 80.6097 28.7866Z" fill="#FEFEFE"/>
<path fill-rule="evenodd" clip-rule="evenodd" d="M83.6193 30.2325C82.8369 32.7896 84.2771 34.8592 86.8286 34.8592C89.3801 34.8592 92.0903 32.7896 92.8728 30.2325C93.6553 27.6753 92.2151 25.6057 89.6579 25.6057C87.1007 25.6057 84.3961 27.6753 83.6193 30.2325ZM90.0661 30.2325C89.8959 30.7376 89.5789 31.1805 89.1558 31.5047C88.7326 31.8289 88.2225 32.0196 87.6904 32.0525C87.4688 32.064 87.248 32.0188 87.0487 31.9211C86.8495 31.8234 86.6785 31.6765 86.5519 31.4942C86.4253 31.312 86.3473 31.1005 86.3253 30.8797C86.3032 30.6589 86.3379 30.4361 86.426 30.2325C86.5959 29.7276 86.9129 29.285 87.3362 28.9617C87.7596 28.6384 88.2699 28.4491 88.8017 28.4181C89.0231 28.4055 89.244 28.4498 89.4434 28.5467C89.6428 28.6437 89.814 28.7901 89.9408 28.972C90.0676 29.1539 90.1457 29.3653 90.1676 29.5859C90.1895 29.8066 90.1546 30.0292 90.0661 30.2325Z" fill="#FEFEFE"/>
<path fill-rule="evenodd" clip-rule="evenodd" d="M44.793 30.2325C44.0162 32.7896 45.4507 34.8592 48.0079 34.8592C50.5651 34.8592 53.2697 32.7896 54.0465 30.2325C54.8232 27.6753 53.3944 25.6057 50.8372 25.6057C48.2801 25.6057 45.5528 27.6753 44.793 30.2325ZM51.2398 30.2325C51.0709 30.7384 50.7543 31.1822 50.3308 31.5066C49.9074 31.831 49.3965 32.0211 48.8641 32.0525C48.6424 32.0646 48.4214 32.0196 48.2221 31.922C48.0228 31.8243 47.8519 31.6771 47.7256 31.4946C47.5994 31.312 47.522 31.1002 47.5009 30.8792C47.4799 30.6582 47.5158 30.4356 47.6053 30.2325C47.7745 29.7272 48.0913 29.2842 48.5148 28.9608C48.9383 28.6374 49.449 28.4483 49.9811 28.4181C50.2006 28.4089 50.4188 28.4559 50.6152 28.5546C50.8115 28.6532 50.9795 28.8003 51.1032 28.9819C51.2269 29.1635 51.3023 29.3736 51.3222 29.5924C51.3421 29.8112 51.306 30.0315 51.2171 30.2325H51.2398Z" fill="#FEFEFE"/>
<path fill-rule="evenodd" clip-rule="evenodd" d="M46.8071 2.88603H83.7529L83.0271 5.26744C82.9377 5.62668 82.9895 6.00654 83.1719 6.32872C83.3542 6.65091 83.6532 6.89088 84.0072 6.99919C84.3612 7.1075 84.7432 7.0759 85.0746 6.91089C85.406 6.74588 85.6615 6.46004 85.7884 6.11227L87.0868 1.86543C87.1545 1.64684 87.1698 1.41539 87.1314 1.18981C87.0929 0.964228 87.0019 0.750867 86.8657 0.567001C86.7325 0.392237 86.561 0.250279 86.3645 0.152C86.1679 0.0537215 85.9515 0.00172785 85.7317 8.64716e-07H45.7412C45.4317 -0.000337486 45.1303 0.098626 44.8812 0.28234C44.6322 0.466054 44.4487 0.724824 44.3577 1.0206L41.3242 10.9488H44.3407L46.8071 2.88603Z" fill="#FEFEFE"/>
<path fill-rule="evenodd" clip-rule="evenodd" d="M42.8827 30.2325C42.8827 29.849 42.7304 29.4812 42.4592 29.2101C42.1881 28.9389 41.8203 28.7866 41.4368 28.7866H38.891L43.461 13.8348H40.4389L39.6338 16.4714H34.0715C33.8744 16.459 33.6768 16.4872 33.491 16.5541C33.3052 16.621 33.1351 16.7253 32.9912 16.8605C32.8472 16.9957 32.7325 17.159 32.654 17.3402C32.5756 17.5215 32.5352 17.7169 32.5352 17.9144C32.5352 18.1119 32.5756 18.3073 32.654 18.4885C32.7325 18.6698 32.8472 18.8331 32.9912 18.9683C33.1351 19.1035 33.3052 19.2078 33.491 19.2747C33.6768 19.3416 33.8744 19.3698 34.0715 19.3574H38.7493L35.557 29.8129C35.49 30.0284 35.4746 30.2567 35.512 30.4793C35.5495 30.7019 35.6387 30.9125 35.7725 31.0943C35.9074 31.2672 36.0793 31.4079 36.2754 31.5059C36.4716 31.604 36.6872 31.6571 36.9065 31.6613H41.4085C41.792 31.6613 42.1597 31.509 42.4309 31.2378C42.702 30.9667 42.8543 30.5989 42.8543 30.2155" fill="#FEFEFE"/>
<path fill-rule="evenodd" clip-rule="evenodd" d="M10.8807 43.3642C10.4094 43.0284 9.87825 42.7859 9.31582 42.6498C8.62216 42.4922 7.91217 42.4179 7.20091 42.4287H4.81383C4.46145 42.414 4.1087 42.4465 3.76488 42.525C3.50284 42.5991 3.26067 42.7308 3.05613 42.9106C2.85182 43.0974 2.68948 43.3255 2.57985 43.5797C2.44329 43.8973 2.33882 44.2278 2.268 44.5662L0.11907 53.8651C0.0425892 54.1615 0.00260303 54.4661 4.22147e-10 54.7723C-6.07605e-06 54.9764 0.0655874 55.1752 0.18711 55.3393C0.333957 55.5072 0.534212 55.6193 0.754111 55.6568C1.0638 55.7344 1.38173 55.7744 1.701 55.7758H4.4226C5.37018 55.7839 6.31141 55.6206 7.20091 55.2939C8.05431 54.9839 8.84402 54.5208 9.53128 53.9274C10.2309 53.3137 10.823 52.5874 11.2833 51.7785C11.781 50.8915 12.1459 49.9364 12.3663 48.9435C12.6416 47.8684 12.6416 46.7413 12.3663 45.6662C12.1414 44.7487 11.6165 43.9326 10.8751 43.3472L10.8807 43.3642ZM22.9692 46.942C22.6437 46.5102 22.2199 46.1623 21.7331 45.927C21.166 45.6542 20.5422 45.5201 19.9131 45.5358C19.2164 45.534 18.5264 45.6709 17.8832 45.9384C17.2251 46.2137 16.6176 46.597 16.0858 47.0724C15.5299 47.5613 15.0553 48.1355 14.6796 48.7734C14.2834 49.4262 13.9943 50.1383 13.8235 50.8826C13.6552 51.5671 13.6224 52.2778 13.7271 52.9749C13.8183 53.574 14.0495 54.1431 14.4018 54.6362C14.7509 55.1042 15.2107 55.4783 15.7399 55.7248C16.3322 55.9947 16.9773 56.1284 17.628 56.116C18.2326 56.1193 18.8351 56.0431 19.4198 55.8892C19.9434 55.7613 20.4497 55.5709 20.928 55.3222C21.337 55.0844 21.7062 54.784 22.0223 54.4321C22.2765 54.1952 22.4608 53.8932 22.5553 53.5589C22.5981 53.4204 22.6091 53.274 22.5875 53.1307C22.5659 52.9874 22.5122 52.8508 22.4305 52.7311C22.3371 52.6199 22.2182 52.5331 22.0839 52.4778C21.9496 52.4225 21.804 52.4005 21.6594 52.4135C21.4619 52.4252 21.269 52.4773 21.0924 52.5666L20.344 52.8955C20.0513 53.0207 19.7523 53.1305 19.4481 53.2243C19.1131 53.3233 18.7655 53.3729 18.4162 53.3718C17.8986 53.4074 17.3872 53.243 16.9873 52.9125C16.8193 52.7446 16.6961 52.5373 16.6287 52.3095C16.5614 52.0817 16.5521 51.8407 16.6018 51.6084H21.8125C22.0288 51.6097 22.2449 51.5945 22.4589 51.563C22.6334 51.5345 22.8008 51.4729 22.9522 51.3816C23.0978 51.2918 23.2186 51.1671 23.3037 51.0187C23.4065 50.8263 23.481 50.62 23.5249 50.4064C23.6761 49.7886 23.705 49.1471 23.6099 48.5182C23.5202 47.9568 23.3029 47.4234 22.9749 46.959L22.9692 46.942ZM20.8373 49.6579H17.01C17.21 49.1424 17.5497 48.6928 17.9909 48.3595C18.386 48.0554 18.8702 47.8901 19.3687 47.8889C19.5824 47.8829 19.7947 47.924 19.9907 48.0093C20.1866 48.0945 20.3615 48.2218 20.5027 48.3822C20.6569 48.5558 20.768 48.7634 20.8271 48.9879C20.8862 49.2125 20.8916 49.4479 20.8429 49.6749L20.8373 49.6579ZM29.3139 41.4477C28.35 41.4477 27.698 42.1735 27.3691 43.608L25.0274 53.746C24.691 55.1862 25.0085 55.9063 25.98 55.9063C26.213 55.9179 26.4457 55.8759 26.66 55.7835C26.8743 55.6911 27.0645 55.5508 27.216 55.3733C27.5822 54.8965 27.8273 54.3382 27.9304 53.746L30.2722 43.608C30.5935 42.1716 30.274 41.4515 29.3139 41.4477ZM34.3489 45.6549C33.3812 45.6549 32.7329 46.3693 32.4041 47.7982L31.0319 53.746C30.6993 55.1862 31.0168 55.9063 31.9845 55.9063C32.2138 55.9144 32.442 55.8707 32.6521 55.7784C32.8622 55.6862 33.0487 55.5477 33.1979 55.3733C33.564 54.8965 33.8092 54.3382 33.9123 53.746L35.2901 47.7982C35.619 46.3693 35.3015 45.6549 34.3489 45.6549ZM35.3185 41.4477C34.8388 41.4581 34.3784 41.639 34.02 41.958C33.6348 42.2641 33.3649 42.6919 33.2546 43.1714C33.1955 43.3729 33.1826 43.5852 33.217 43.7923C33.2513 43.9995 33.332 44.1962 33.453 44.3678C33.5752 44.533 33.7367 44.6652 33.9228 44.7523C34.1089 44.8394 34.3138 44.8788 34.519 44.8668C34.7519 44.8658 34.9826 44.8215 35.1994 44.7363C35.4235 44.6503 35.6308 44.5255 35.8118 44.3678C35.9985 44.2057 36.1575 44.0142 36.2824 43.8008C36.4181 43.5997 36.5143 43.3745 36.5659 43.1374C36.6227 42.9391 36.6355 42.7307 36.6031 42.527C36.5708 42.3232 36.4942 42.129 36.3788 41.958C36.2576 41.7923 36.0975 41.659 35.9126 41.57C35.7276 41.481 35.5235 41.439 35.3185 41.4477ZM45.1106 45.6549C44.4472 45.6549 43.9029 46.0745 43.4606 46.9136L40.6709 52.2434L40.257 47.1007C40.2537 46.7155 40.1438 46.3387 39.9395 46.0121C39.841 45.8927 39.7157 45.7981 39.5739 45.736C39.4321 45.674 39.2776 45.6462 39.123 45.6549C38.7204 45.6591 38.3332 45.8103 38.0344 46.0801C37.7098 46.3448 37.4824 46.7098 37.388 47.1177C37.3393 47.3858 37.3393 47.6605 37.388 47.9286L38.3916 54.4774C38.4326 54.8797 38.5644 55.2675 38.7772 55.6114C38.8995 55.7537 39.0552 55.8634 39.2304 55.9307C39.4055 55.998 39.5946 56.0208 39.7808 55.997C40.1908 56.015 40.5936 55.8841 40.9148 55.6284C41.2571 55.3185 41.5463 54.9546 41.7709 54.5511L45.7059 48.093C45.9044 47.7936 46.0537 47.4643 46.1482 47.1177C46.2035 46.9401 46.2204 46.7527 46.198 46.5679C46.1755 46.3832 46.1141 46.2054 46.0178 46.0461C45.9131 45.9082 45.7746 45.7997 45.6156 45.7311C45.4567 45.6626 45.2827 45.6363 45.1106 45.6549ZM55.6284 46.959C55.3003 46.521 54.8727 46.1673 54.381 45.927C53.8156 45.6551 53.1938 45.521 52.5666 45.5358C51.8682 45.534 51.1763 45.6708 50.5311 45.9384C49.8737 46.215 49.2664 46.5981 48.7337 47.0724C48.1794 47.5628 47.7049 48.1367 47.3275 48.7734C46.9445 49.4019 46.6632 50.0869 46.494 50.8033C46.3212 51.4869 46.2865 52.1982 46.392 52.8955C46.4841 53.4934 46.7131 54.0619 47.061 54.5568C47.4114 55.0235 47.8709 55.3973 48.3992 55.6454C48.9932 55.9158 49.6404 56.0495 50.2929 56.0367C50.8957 56.0405 51.4963 55.9642 52.079 55.8099C52.6029 55.6828 53.1094 55.4924 53.5872 55.2429C53.9867 55.0282 54.3518 54.7549 54.6702 54.4321C54.9244 54.1952 55.1087 53.8932 55.2032 53.5589C55.2468 53.4208 55.2587 53.2747 55.2381 53.1314C55.2175 52.9881 55.1648 52.8512 55.0841 52.7311C54.9897 52.621 54.8707 52.5349 54.7367 52.4797C54.6026 52.4246 54.4574 52.4019 54.313 52.4135C54.1059 52.4213 53.9028 52.4735 53.7176 52.5666L52.9692 52.8955C52.6785 53.0208 52.3814 53.1306 52.079 53.2243C51.7421 53.3237 51.3926 53.3733 51.0414 53.3718C50.5238 53.4074 50.0124 53.243 49.6125 52.9125C49.4471 52.7429 49.3255 52.5354 49.2583 52.3082C49.1911 52.0809 49.1804 51.8407 49.227 51.6084H54.432C54.6483 51.6094 54.8644 51.5943 55.0784 51.563C55.2511 51.5345 55.4167 51.4729 55.5661 51.3816C55.7116 51.2918 55.8325 51.1671 55.9176 51.0187C56.0184 50.826 56.091 50.6197 56.133 50.4064C56.286 49.7889 56.3168 49.1475 56.2238 48.5182C56.146 47.9601 55.9424 47.4269 55.6284 46.959ZM53.4908 49.6749H49.6749C49.871 49.1588 50.2091 48.7086 50.6502 48.3765C51.0464 48.0747 51.5299 47.9096 52.028 47.9059C52.2416 47.8999 52.4539 47.941 52.6499 48.0263C52.8459 48.1115 53.0207 48.2388 53.162 48.3992C53.3116 48.572 53.4191 48.7771 53.4762 48.9984C53.5333 49.2198 53.5383 49.4513 53.4908 49.6749ZM65.3978 47.061C65.4463 46.8854 65.4537 46.7009 65.4193 46.5219C65.3848 46.3429 65.3096 46.1743 65.1994 46.0291C65.0885 45.8885 64.946 45.7762 64.7834 45.7013C64.6208 45.6264 64.4427 45.5911 64.2638 45.5982C63.4359 45.6549 62.6565 46.0094 62.0695 46.5961C62.0236 46.3299 61.8842 46.0887 61.6763 45.9162C61.4684 45.7436 61.2057 45.651 60.9355 45.6549C59.9716 45.6549 59.3196 46.3693 58.9907 47.7982L57.6186 53.746C57.2822 55.1862 57.5997 55.9063 58.5712 55.9063C59.5407 55.9063 60.1871 55.1862 60.5216 53.746L61.2304 50.6672C61.2871 50.4177 61.3495 50.2022 61.4062 50.0208C61.4611 49.8548 61.5373 49.6966 61.633 49.5502C61.7311 49.417 61.8498 49.3003 61.9845 49.2043C62.1617 49.0833 62.3519 48.9825 62.5515 48.9038C62.8747 48.7677 63.1979 48.6487 63.5154 48.5466C63.8089 48.454 64.0966 48.3441 64.3772 48.2177C64.6238 48.1094 64.85 47.9598 65.0463 47.7755C65.2295 47.5766 65.3498 47.3281 65.3922 47.061H65.3978ZM73.9482 45.6549C73.6565 45.65 73.372 45.7461 73.1431 45.927C72.8517 46.1849 72.6029 46.4873 72.406 46.8229L69.5369 51.5347L68.9303 47.061C68.8932 46.6906 68.7855 46.3306 68.6127 46.0008C68.5221 45.8704 68.3977 45.7672 68.2529 45.7023C68.108 45.6373 67.9482 45.6131 67.7906 45.6322C67.3849 45.6383 66.9948 45.7891 66.6906 46.0575C66.3626 46.32 66.1329 46.6856 66.0386 47.0951C66.007 47.2291 65.988 47.3658 65.9818 47.5033C65.9619 47.6425 65.9619 47.7837 65.9818 47.9229L67.2973 54.8913L65.4886 57.5335C65.2709 57.8402 65.1114 58.1842 65.0179 58.5485C64.9613 58.7215 64.9441 58.905 64.9676 59.0856C64.9912 59.2661 65.0549 59.4391 65.154 59.5918C65.2724 59.7281 65.4216 59.8343 65.5893 59.9013C65.7569 59.9684 65.9382 59.9944 66.1179 59.9773C66.4257 59.9829 66.7232 59.8667 66.9457 59.6541C67.2204 59.3913 67.4622 59.0962 67.6658 58.7753L74.5436 48.076C74.7555 47.7571 74.9162 47.407 75.0198 47.0384C75.0764 46.8666 75.0926 46.6841 75.067 46.5051C75.0414 46.3261 74.9748 46.1555 74.8724 46.0064C74.7543 45.8811 74.6092 45.7842 74.4481 45.7233C74.2869 45.6624 74.1141 45.639 73.9425 45.6549H73.9482ZM92.4891 43.8462C92.7046 42.8974 92.1092 42.4249 90.7031 42.4287H85.5264C84.1202 42.4287 83.3037 42.8993 83.0882 43.8462C82.8728 44.793 83.4681 45.241 84.8743 45.241H85.98L84.0068 53.78C83.6723 55.2202 84.0068 55.9459 84.9934 55.9459C85.9799 55.9459 86.649 55.2202 86.9836 53.78L88.951 45.241H90.051C91.461 45.241 92.2718 44.776 92.4835 43.8462H92.4891ZM97.0762 45.5982C96.2482 45.6549 95.4688 46.0094 94.8819 46.5961C94.836 46.3299 94.6965 46.0887 94.4886 45.9162C94.2807 45.7436 94.018 45.651 93.7479 45.6549C92.7802 45.6549 92.1319 46.3693 91.8031 47.7982L90.4252 53.746C90.0964 55.1862 90.4139 55.9063 91.3778 55.9063C92.3474 55.9063 92.9938 55.1862 93.3283 53.746L94.0427 50.6672C94.0899 50.4488 94.1486 50.233 94.2185 50.0208C94.271 49.8538 94.3474 49.6953 94.4453 49.5502C94.5398 49.4159 94.6568 49.2989 94.7911 49.2043C94.9691 49.0846 95.1591 48.9838 95.3581 48.9038C95.6813 48.7677 96.0045 48.6487 96.3221 48.5466C96.6174 48.454 96.9071 48.3442 97.1896 48.2177C97.4353 48.108 97.6613 47.9586 97.8586 47.7755C98.0421 47.5768 98.1624 47.3282 98.2045 47.061C98.2538 46.8858 98.262 46.7015 98.2286 46.5226C98.1952 46.3436 98.1209 46.1747 98.0117 46.0291C97.9003 45.8877 97.7568 45.7749 97.5931 45.7C97.4295 45.625 97.2503 45.5902 97.0705 45.5982H97.0762ZM107.809 45.6549C107.488 45.6747 107.177 45.7704 106.9 45.934C106.623 46.0976 106.389 46.3245 106.216 46.5961C106.002 46.2452 105.695 45.9607 105.328 45.7745C104.962 45.5883 104.551 45.5076 104.141 45.5415C103.511 45.5445 102.889 45.6797 102.315 45.9384C101.693 46.2093 101.119 46.5788 100.614 47.0327C100.084 47.5175 99.6274 48.0772 99.2591 48.694C98.8698 49.3403 98.5865 50.0447 98.42 50.7806C98.2448 51.473 98.1968 52.1915 98.2782 52.9012C98.344 53.4878 98.5376 54.0529 98.8452 54.5568C99.1239 55.0049 99.5148 55.3723 99.9792 55.6228C100.471 55.8773 101.018 56.0077 101.572 56.0026C102.073 56.0019 102.569 55.9012 103.031 55.7065C103.492 55.5118 103.91 55.2269 104.26 54.8686C104.286 55.1514 104.416 55.4142 104.626 55.6053C104.836 55.7964 105.11 55.9017 105.394 55.9006C106.352 55.9006 106.993 55.1805 107.328 53.7403L108.7 47.7925C108.87 47.269 108.882 46.7067 108.734 46.1765C108.65 46.0052 108.517 45.8635 108.35 45.7703C108.184 45.6771 107.993 45.6368 107.804 45.6549H107.809ZM105.162 50.7579C105.031 51.4289 104.708 52.0475 104.232 52.5383C104.041 52.7424 103.811 52.9063 103.556 53.0203C103.301 53.1342 103.026 53.1959 102.746 53.2017C102.507 53.2141 102.269 53.1597 102.058 53.0445C101.848 52.9294 101.674 52.758 101.555 52.5496C101.289 51.9894 101.246 51.3485 101.436 50.7579C101.564 50.0921 101.895 49.4821 102.383 49.0115C102.775 48.6155 103.306 48.3878 103.863 48.3765C104.098 48.3653 104.331 48.4192 104.537 48.5323C104.744 48.6453 104.914 48.8132 105.031 49.0172C105.295 49.5538 105.34 50.1719 105.156 50.7409L105.162 50.7579ZM117.573 45.6152C117.06 45.6065 116.548 45.6832 116.059 45.842C115.587 46.0087 115.155 46.2712 114.789 46.6131C114.743 46.3419 114.599 46.0969 114.385 45.9237C114.171 45.7506 113.902 45.6611 113.627 45.6719C112.663 45.6719 112.011 46.3863 111.682 47.8152L110.31 53.763C109.974 55.2032 110.291 55.9233 111.263 55.9233C112.232 55.9233 112.878 55.2032 113.213 53.763L113.99 50.361C114.103 49.7432 114.359 49.1605 114.738 48.66C114.901 48.4733 115.104 48.3255 115.332 48.2274C115.559 48.1293 115.806 48.0834 116.054 48.093C116.621 48.093 117.006 48.2801 117.148 48.66C117.287 49.2331 117.265 49.8334 117.086 50.395L116.314 53.7346C115.98 55.1748 116.314 55.8949 117.267 55.8949C118.22 55.8949 118.883 55.1748 119.218 53.7346L120.204 49.5048C120.499 48.2158 120.42 47.2425 119.966 46.5848C119.501 45.927 118.707 45.5982 117.568 45.5982L117.573 45.6152ZM129.883 46.8116C129.756 46.5456 129.56 46.3185 129.316 46.1538C129.025 45.9403 128.699 45.7809 128.352 45.6832C127.917 45.5569 127.466 45.4958 127.014 45.5018C126.495 45.4989 125.979 45.5852 125.489 45.7569C125.023 45.9178 124.585 46.1492 124.19 46.443C123.81 46.7261 123.479 47.0689 123.209 47.4579C122.943 47.8302 122.751 48.2497 122.642 48.694C122.553 49.0304 122.533 49.3817 122.586 49.7259C122.642 50.0117 122.762 50.2811 122.937 50.5141C123.134 50.7696 123.376 50.9868 123.651 51.1548C123.99 51.3638 124.34 51.5531 124.7 51.7218C125.177 51.9373 125.528 52.113 125.761 52.2491C125.866 52.2954 125.951 52.3784 126 52.4826C126.049 52.5869 126.059 52.7053 126.027 52.8161C125.98 52.9934 125.866 53.1456 125.71 53.2414C125.523 53.3627 125.303 53.424 125.08 53.4171C124.86 53.4187 124.642 53.3743 124.44 53.2867C124.233 53.1991 124.032 53.0987 123.839 52.9862C123.645 52.8737 123.444 52.7733 123.238 52.6857C123.035 52.6002 122.817 52.5559 122.597 52.5553C122.268 52.5657 121.957 52.704 121.729 52.9408C121.474 53.1927 121.299 53.5141 121.225 53.8651C121.152 54.1492 121.172 54.4491 121.281 54.7212C121.403 54.9998 121.599 55.2392 121.848 55.413C122.159 55.6273 122.504 55.7865 122.869 55.8836C123.883 56.1441 124.95 56.1146 125.948 55.7985C126.451 55.6335 126.926 55.3906 127.354 55.0784C127.759 54.7814 128.111 54.4193 128.397 54.0068C128.669 53.6067 128.861 53.1582 128.964 52.6857C129.054 52.4038 129.082 52.1058 129.046 51.8122C129.01 51.5185 128.91 51.2362 128.754 50.9847C128.355 50.4599 127.828 50.046 127.224 49.7827C126.946 49.6466 126.702 49.5332 126.475 49.4424C126.281 49.3683 126.091 49.2811 125.908 49.1816C125.775 49.1181 125.659 49.025 125.568 48.9095C125.532 48.8604 125.508 48.8035 125.498 48.7433C125.488 48.6832 125.493 48.6216 125.511 48.5636C125.528 48.4901 125.559 48.4206 125.603 48.3593C125.647 48.298 125.702 48.246 125.766 48.2064C125.919 48.1004 126.102 48.0467 126.288 48.0533C126.483 48.0542 126.675 48.0927 126.855 48.1667C127.042 48.2404 127.224 48.3255 127.422 48.4105C127.62 48.4956 127.785 48.5806 127.955 48.6543C128.118 48.7263 128.293 48.7649 128.471 48.7677C128.814 48.763 129.143 48.6364 129.401 48.4105C129.683 48.1894 129.883 47.8799 129.968 47.5317C130.021 47.2827 129.989 47.0231 129.877 46.7946L129.883 46.8116ZM9.13438 48.9322C8.50501 51.5971 7.01947 52.9579 4.66074 52.9579H3.29994L5.103 45.241H6.40711C8.79607 45.241 9.70516 46.4714 9.13438 48.9322Z" fill="#FEFEFE"/>
<path fill-rule="evenodd" clip-rule="evenodd" d="M64.6399 13.8348L57.5977 18.042C57.3257 18.2042 57.1145 18.4512 56.9966 18.7452C56.8786 19.0391 56.8604 19.3636 56.9448 19.6688C57.0292 19.9741 57.2114 20.2432 57.4636 20.4348C57.7157 20.6265 58.0238 20.73 58.3405 20.7295H95.4961C95.8795 20.7295 96.2473 20.5772 96.5184 20.3061C96.7896 20.0349 96.9419 19.6672 96.9419 19.2837C96.9419 18.9002 96.7896 18.5325 96.5184 18.2613C96.2473 17.9902 95.8795 17.8378 95.4961 17.8378H63.5739L70.6217 13.608C70.8953 13.4473 71.1081 13.2008 71.2272 12.9068C71.3463 12.6127 71.3649 12.2876 71.2802 11.9818C71.1956 11.6761 71.0123 11.4069 70.7589 11.216C70.5055 11.0251 70.1962 10.9232 69.879 10.9261H27.0761C26.2766 10.9261 24.9102 11.5725 24.9102 12.372C24.9102 13.1714 26.2766 13.8121 27.0761 13.8121H64.6399V13.8348Z" fill="#FFD200"/>
</svg>
